<svg xmlns="http://www.w3.org/2000/svg" data-name="Layer 1" viewBox="0 0 1000 1000" id="carbon-cycle" fill="#407454"><path d="M826.83,473.77a16,16,0,0,1-15.85-14c-10.85-84.87-56.93-162.61-126.42-213.29a16,16,0,1,1,18.86-25.85,345.32,345.32,0,0,1,139.3,235.08,16,16,0,0,1-13.84,17.9A15.79,15.79,0,0,1,826.83,473.77Z"></path><path d="M826.85 600.46a16 16 0 01-13.85-8L739.85 465.77a16 16 0 0113.86-24H900a16 16 0 0113.86 24L840.71 592.46A16 16 0 01826.85 600.46zM781.42 473.77l45.43 78.69 45.44-78.69zM542.21 842.85a16 16 0 01-2-31.87c84.87-10.85 162.61-56.93 213.29-126.42a16 16 0 1125.85 18.86 345.32 345.32 0 01-235.08 139.3A15.79 15.79 0 01542.21 842.85z"></path><path d="M542.23 916a16 16 0 01-8-2.14L407.54 840.71a16 16 0 010-27.71l126.69-73.15a16 16 0 0124 13.86V900a16 16 0 01-16 16zm-94.69-89.15l78.69 45.44V781.42zM306 782.42a15.88 15.88 0 01-9.42-3.08 345.32 345.32 0 01-139.3-235.08A16 16 0 01189 540.2C199.87 625.07 246 702.81 315.44 753.49A16 16 0 01306 782.42z"></path><path d="M246.29 558.23H100a16 16 0 01-13.86-24l73.15-126.69a16 16 0 0127.71 0l73.15 126.69a16 16 0 01-13.86 24zm-118.58-32h90.87l-45.43-78.69zM233.57 322a16 16 0 01-12.91-25.43 345.32 345.32 0 01235.08-139.3A16 16 0 11459.8 189C374.93 199.87 297.19 246 246.51 315.44A16 16 0 01233.57 322z"></path><path d="M457.77 262.29a16 16 0 01-16-16V100a16 16 0 0124-13.86l126.69 73.15a16 16 0 010 27.71L465.77 260.15A16 16 0 01457.77 262.29zm16-134.58v90.87l78.69-45.43zM476.56 643.38c-42.5 0-69.48-13.74-85.73-27.24-22.56-18.73-29.65-40.49-31-45.51-15.41-45-13-84.42 7.24-117.18 39.37-63.82 131.9-76.87 135.82-77.4 88.71-11.88 113.09-49.7 113.32-50.08a16 16 0 0128.77 2.4c33.37 87.88 34.46 161.29 3.26 218.18-40.43 73.7-119.84 90.92-123.2 91.62A244.42 244.42 0 01476.56 643.38zm-85.94-81.33c1.05 3.79 20.23 66.58 127.87 44.78 1.68-.37 69-15.71 101.83-76 23.55-43.21 24.59-99.28 3.14-166.92-2.92 2.38-6.21 4.84-9.9 7.34-27.13 18.4-62.95 30.69-106.47 36.52-.79.11-81.58 11.68-112.88 62.58-15 24.31-16.3 54.72-4 90.39A9.35 9.35 0 01390.62 562.05zm0 .07h0z"></path><path d="M345.34,680.82a16.31,16.31,0,0,1-4.12-.54,16,16,0,0,1-11.36-19.57c12-45.18,40.83-84.61,83.42-114,31.81-22,60.13-30.73,61.32-31.09a16,16,0,0,1,9.34,30.6h0c-.25.08-25.48,8-53.29,27.39-36.29,25.31-59.79,57.39-69.86,95.35A16,16,0,0,1,345.34,680.82Z"></path></svg>