<svg xmlns="http://www.w3.org/2000/svg" data-name="Layer 1" viewBox="0 0 32 32" id="plant" fill="#407454"><path d="M27.272,13.135l-.118-.7-.7-.118a9.834,9.834,0,0,0-5.968.89A9.7,9.7,0,0,0,16.58,3.2L16,2.781l-.58.414a9.838,9.838,0,0,0-4.127,8,9.726,9.726,0,0,0,.223,2.007,9.834,9.834,0,0,0-5.968-.889l-.7.118-.118.7a9.82,9.82,0,0,0,9.69,11.451c.194,0,.388-.013.582-.025v4.658h2V24.562c.194.011.388.024.581.024a9.82,9.82,0,0,0,9.691-11.451ZM16,5.28a7.813,7.813,0,0,1,1.153,10.59c-.029.036-.059.071-.088.108s-.044.051-.065.078V10.477H15v5.579c-.021-.027-.045-.052-.066-.079s-.058-.07-.086-.106A7.813,7.813,0,0,1,16,5.28ZM6.612,14.2a7.809,7.809,0,0,1,8.3,6.637l-3.161-3.161-1.414,1.414L13.8,22.551A7.8,7.8,0,0,1,6.612,14.2Zm16.506,6.1a7.812,7.812,0,0,1-4.645,2.231l3.438-3.438L20.5,17.675,17.06,21.112A7.8,7.8,0,0,1,25.388,14.2,7.835,7.835,0,0,1,23.118,20.3Z"></path></svg>