<svg xmlns="http://www.w3.org/2000/svg" data-name="Layer 1" id="profit" ><path d="M20.5,9h-1a1,1,0,0,1-1-1,.5.5,0,0,0-1,0,2,2,0,0,0,2,2v.5a.5.5,0,0,0,1,0V10a2,2,0,0,0,0-4h-1a1,1,0,0,1,0-2h1a1,1,0,0,1,1,1,.5.5,0,0,0,1,0,2,2,0,0,0-2-2V2.5a.5.5,0,0,0-1,0V3a2,2,0,0,0,0,4h1a1,1,0,0,1,0,2ZM20,13a6.5,6.5,0,1,0-6.5-6.5A6.508,6.508,0,0,0,20,13ZM20,1a5.5,5.5,0,1,1-5.5,5.5A5.507,5.507,0,0,1,20,1ZM30.987,9.438a.457.457,0,0,0-.082-.215s0-.011-.008-.016L30.89,9.2a.489.489,0,0,0-.141-.124h0A.487.487,0,0,0,30.5,9h-3a.5.5,0,0,0,0,1h1.53l-9.02,6.864-7.694-6.252a.5.5,0,0,0-.651.018L1.2,20.13a.5.5,0,1,0,.672.74l10.143-9.211,7.666,6.229a.5.5,0,0,0,.618.01L30,10.519V12.5a.5.5,0,0,0,1,0v-3A.466.466,0,0,0,30.987,9.438ZM21.5,20h-3A1.5,1.5,0,0,0,17,21.5v10a.5.5,0,0,0,.5.5h5a.5.5,0,0,0,.5-.5v-10A1.5,1.5,0,0,0,21.5,20ZM22,31H18V21.5a.5.5,0,0,1,.5-.5h3a.5.5,0,0,1,.5.5ZM13.5,16h-3A1.5,1.5,0,0,0,9,17.5v14a.5.5,0,0,0,.5.5h5a.5.5,0,0,0,.5-.5v-14A1.5,1.5,0,0,0,13.5,16ZM14,31H10V17.5a.5.5,0,0,1,.5-.5h3a.5.5,0,0,1,.5.5ZM5.5,23h-3A1.5,1.5,0,0,0,1,24.5v7a.5.5,0,0,0,.5.5h5a.5.5,0,0,0,.5-.5v-7A1.5,1.5,0,0,0,5.5,23ZM6,31H2V24.5a.5.5,0,0,1,.5-.5h3a.5.5,0,0,1,.5.5ZM29.5,16h-3A1.5,1.5,0,0,0,25,17.5v14a.5.5,0,0,0,.5.5h5a.5.5,0,0,0,.5-.5v-14A1.5,1.5,0,0,0,29.5,16ZM30,31H26V17.5a.5.5,0,0,1,.5-.5h3a.5.5,0,0,1,.5.5Z"></path></svg>