<svg xmlns="http://www.w3.org/2000/svg" enable-background="new 0 0 24 24" viewBox="0 0 24 24" id="roadwork"><path d="M21.57324 19.85059c.39941-.65723.42578-1.45703.0708-2.13965l-1.26855-2.43555c-.38965-.74707-1.16406-1.21191-2.02197-1.21191-.76947 0-1.45557.38733-1.87311 1.00287L8.88086 7.4668C8.16895 6.75488 7.16211 6.48242 6.18994 6.73438 5.2168 6.9873 4.47119 7.71484 4.1958 8.68164 4.17969 8.7373 4.16846 8.79492 4.1626 8.85254L4.10205 9.43652c-.11963 1.15527.23193 2.33496.96436 3.2373.34863.43066.97803.49512 1.40674.14648.42871-.34766.49414-.97754.146-1.40625-.40088-.49414-.59326-1.13965-.52783-1.77148l.0498-.48047c.12939-.34668.4248-.45898.55127-.49121.13428-.03613.479-.08594.77441.20996l7.82617 7.82617c.06427.06427.1424.10144.21759.14453l-.44757.85938H15.0625c-.35449.68164-.32813 1.48145.0708 2.13867.4126.68066 1.14209 1.08691 1.95117 1.08691h2.5376C20.43115 20.93652 21.16016 20.53027 21.57324 19.85059zM17 5.5C17 3.57031 15.42969 2 13.5 2S10 3.57031 10 5.5 11.57031 9 13.5 9 17 7.42969 17 5.5zM12 5.5C12 4.67285 12.67285 4 13.5 4S15 4.67285 15 5.5 14.32715 7 13.5 7 12 6.32715 12 5.5z"></path><path d="M2.47217,21.76758c0.44727,0.32324,1.07227,0.22559,1.39697-0.21973l3.93066-5.39648
			c0.17676-0.24316,0.43896-0.39063,0.73828-0.41504c0.30713-0.02832,0.58203,0.07715,0.79639,0.28711l1.80273,1.76855
			c0.24414,0.23926,0.35107,0.58301,0.28613,0.91895l-0.40527,2.09961c-0.10449,0.54199,0.25,1.06641,0.79248,1.1709
			C11.87451,21.99414,11.93848,22,12.00098,22c0.46973,0,0.88867-0.33203,0.98096-0.81055l0.40527-2.09961
			c0.19238-0.99609-0.125-2.01465-0.84961-2.72559l-1.80273-1.76855c-0.62646-0.61426-1.48779-0.92285-2.36182-0.85254
			c-0.875,0.07227-1.67334,0.52051-2.18994,1.23047l-3.93066,5.39648C1.92773,20.81641,2.02588,21.44238,2.47217,21.76758z"></path></svg>